<svg width="200" height="58" viewBox="0 0 200 58" fill="none" xmlns="http://www.w3.org/2000/svg">
<path d="M18.64 38.7053C17.2758 38.7053 16.1011 38.4779 15.1158 38.0232C14.1495 37.5684 13.4011 36.9147 12.8705 36.0621C12.34 35.2095 12.0653 34.1958 12.0463 33.0211H14.6042C14.6042 34.0632 14.9547 34.8874 15.6558 35.4937C16.3758 36.1 17.3705 36.4032 18.64 36.4032C19.8337 36.4032 20.7621 36.1095 21.4253 35.5221C22.1074 34.9347 22.4484 34.12 22.4484 33.0779C22.4484 32.2442 22.2211 31.5147 21.7663 30.8895C21.3305 30.2642 20.6958 29.8284 19.8621 29.5821L17.0484 28.7011C15.6274 28.2653 14.5284 27.5358 13.7516 26.5126C12.9937 25.4895 12.6147 24.2863 12.6147 22.9032C12.6147 21.7853 12.8611 20.8189 13.3537 20.0042C13.8653 19.1705 14.5758 18.5263 15.4853 18.0716C16.3947 17.5979 17.4653 17.3611 18.6969 17.3611C20.5158 17.3611 21.9747 17.8726 23.0737 18.8958C24.1726 19.9 24.7316 21.2453 24.7505 22.9316H22.1926C22.1926 21.9084 21.88 21.1126 21.2547 20.5442C20.6484 19.9568 19.7863 19.6632 18.6684 19.6632C17.5695 19.6632 16.7074 19.9284 16.0821 20.4589C15.4758 20.9895 15.1726 21.7284 15.1726 22.6758C15.1726 23.5284 15.4 24.2674 15.8547 24.8926C16.3095 25.5179 16.9632 25.9632 17.8158 26.2284L20.6579 27.1379C22.0411 27.5737 23.1116 28.3126 23.8695 29.3547C24.6274 30.3968 25.0063 31.619 25.0063 33.0211C25.0063 34.1579 24.7411 35.1526 24.2105 36.0053C23.68 36.8579 22.9316 37.5211 21.9653 37.9947C21.0179 38.4684 19.9095 38.7053 18.64 38.7053Z" fill="white"/>
<path d="M37.2731 38.4211C35.9279 38.4211 34.8763 38.0611 34.1184 37.3411C33.3794 36.6211 33.01 35.6074 33.01 34.3V25.12H28.6047V22.7895H33.01V18.3842H35.5679V22.7895H41.8205V25.12H35.5679V34.3C35.5679 35.4937 36.1363 36.0905 37.2731 36.0905H41.5363V38.4211H37.2731Z" fill="white"/>
<path d="M47.2378 38.4211V22.7895H49.7389V25.7737H50.3357L49.5115 27.6211C49.5115 25.9347 49.8715 24.6653 50.5915 23.8126C51.3304 22.9411 52.4199 22.5053 53.8599 22.5053C55.5083 22.5053 56.8157 23.0263 57.782 24.0684C58.7673 25.0916 59.2599 26.4842 59.2599 28.2463V29.1842H56.702V28.4737C56.702 27.2421 56.3989 26.3042 55.7925 25.66C55.2052 24.9968 54.362 24.6653 53.2631 24.6653C52.1831 24.6653 51.3304 24.9968 50.7052 25.66C50.0989 26.3232 49.7957 27.2611 49.7957 28.4737V38.4211H47.2378Z" fill="white"/>
<path d="M80.7809 38.4211V22.7895H83.3388V25.7737H83.8788L83.3388 26.3705C83.3388 25.1389 83.7082 24.1916 84.4472 23.5284C85.1861 22.8463 86.2093 22.5053 87.5167 22.5053C89.0893 22.5053 90.3398 22.9884 91.2682 23.9547C92.1967 24.9211 92.6609 26.2379 92.6609 27.9053V38.4211H90.103V28.1895C90.103 27.0716 89.7998 26.2189 89.1935 25.6316C88.6061 25.0253 87.8009 24.7221 86.7777 24.7221C85.7167 24.7221 84.8735 25.0442 84.2482 25.6884C83.6419 26.3326 83.3388 27.2611 83.3388 28.4737V38.4211H80.7809Z" fill="white"/>
<path d="M99.7834 43.5368V41.2063H104.757C105.553 41.2063 106.131 41.0263 106.491 40.6663C106.87 40.3063 107.059 39.7474 107.059 38.9895V37L107.116 34.1579H106.605L107.088 33.7316C107.088 34.8684 106.709 35.7684 105.951 36.4316C105.193 37.0947 104.179 37.4263 102.91 37.4263C101.299 37.4263 100.03 36.9053 99.1013 35.8632C98.1729 34.8021 97.7087 33.3811 97.7087 31.6V28.3032C97.7087 26.5221 98.1729 25.1105 99.1013 24.0684C100.03 23.0263 101.299 22.5053 102.91 22.5053C104.179 22.5053 105.193 22.8368 105.951 23.5C106.709 24.1632 107.088 25.0632 107.088 26.2L106.605 25.7737H107.088V22.7895H109.617V38.9895C109.617 40.3916 109.181 41.5 108.31 42.3147C107.457 43.1295 106.263 43.5368 104.729 43.5368H99.7834ZM103.677 35.2095C104.738 35.2095 105.572 34.8779 106.178 34.2147C106.785 33.5516 107.088 32.6326 107.088 31.4579V28.4737C107.088 27.2989 106.785 26.38 106.178 25.7168C105.572 25.0537 104.738 24.7221 103.677 24.7221C102.597 24.7221 101.754 25.0442 101.148 25.6884C100.56 26.3326 100.267 27.2611 100.267 28.4737V31.4579C100.267 32.6705 100.56 33.5989 101.148 34.2432C101.754 34.8874 102.597 35.2095 103.677 35.2095Z" fill="white"/>
<path d="M120.776 38.7053C120.056 38.7053 119.478 38.4968 119.042 38.08C118.625 37.6632 118.417 37.1042 118.417 36.4032C118.417 35.6642 118.625 35.0768 119.042 34.6411C119.478 34.2053 120.056 33.9874 120.776 33.9874C121.496 33.9874 122.064 34.2053 122.481 34.6411C122.917 35.0768 123.134 35.6642 123.134 36.4032C123.134 37.1042 122.917 37.6632 122.481 38.08C122.064 38.4968 121.496 38.7053 120.776 38.7053Z" fill="white"/>
<path d="M131.905 38.4211V17.6737H138.584C139.873 17.6737 140.991 17.9295 141.938 18.4411C142.885 18.9337 143.615 19.6347 144.127 20.5442C144.657 21.4537 144.922 22.5337 144.922 23.7842C144.922 25.0158 144.657 26.0958 144.127 27.0242C143.615 27.9337 142.885 28.6442 141.938 29.1558C140.991 29.6484 139.873 29.8947 138.584 29.8947H134.463V38.4211H131.905ZM134.463 27.5926H138.584C139.702 27.5926 140.593 27.2516 141.256 26.5695C141.938 25.8684 142.279 24.94 142.279 23.7842C142.279 22.6095 141.938 21.6811 141.256 20.9989C140.593 20.3168 139.702 19.9758 138.584 19.9758H134.463V27.5926Z" fill="white"/>
<path d="M150.652 38.7053C149.004 38.7053 147.706 38.2884 146.759 37.4547C145.811 36.6021 145.338 35.4558 145.338 34.0158C145.338 32.5568 145.811 31.4105 146.759 30.5768C147.706 29.7432 148.985 29.3263 150.595 29.3263H155.427V27.7632C155.427 26.7968 155.133 26.0579 154.546 25.5463C153.978 25.0158 153.163 24.7505 152.102 24.7505C151.173 24.7505 150.396 24.9495 149.771 25.3474C149.146 25.7263 148.786 26.2474 148.691 26.9105H146.133C146.304 25.5653 146.939 24.4947 148.038 23.6989C149.136 22.9032 150.51 22.5053 152.159 22.5053C153.959 22.5053 155.38 22.9695 156.422 23.8979C157.464 24.8263 157.985 26.0863 157.985 27.6779V38.4211H155.484V35.4368H155.058L155.484 35.0105C155.484 36.1474 155.039 37.0474 154.148 37.7105C153.276 38.3737 152.111 38.7053 150.652 38.7053ZM151.278 36.6874C152.49 36.6874 153.485 36.3842 154.262 35.7779C155.039 35.1716 155.427 34.3947 155.427 33.4474V31.2305H150.652C149.8 31.2305 149.127 31.4674 148.634 31.9411C148.142 32.4147 147.895 33.0589 147.895 33.8737C147.895 34.7453 148.189 35.4368 148.776 35.9484C149.383 36.4411 150.216 36.6874 151.278 36.6874Z" fill="white"/>
<path d="M165.733 38.6484C164.672 38.6484 163.743 38.4874 162.947 38.1653C162.171 37.8242 161.545 37.3505 161.072 36.7442C160.617 36.1379 160.342 35.4179 160.247 34.5842H162.805C162.919 35.1337 163.222 35.5695 163.715 35.8916C164.226 36.2137 164.899 36.3747 165.733 36.3747H166.926C167.931 36.3747 168.679 36.1758 169.172 35.7779C169.664 35.3611 169.911 34.8116 169.911 34.1295C169.911 33.4663 169.683 32.9453 169.229 32.5663C168.793 32.1684 168.139 31.9032 167.267 31.7705L165.164 31.4295C163.63 31.1642 162.483 30.6905 161.725 30.0084C160.986 29.3074 160.617 28.2937 160.617 26.9674C160.617 25.5653 161.062 24.4853 161.953 23.7274C162.843 22.9505 164.179 22.5621 165.96 22.5621H167.04C168.537 22.5621 169.74 22.9126 170.65 23.6137C171.559 24.3147 172.109 25.2621 172.298 26.4558H169.74C169.626 25.9632 169.342 25.5747 168.887 25.2905C168.433 24.9874 167.817 24.8358 167.04 24.8358H165.96C164.994 24.8358 164.283 25.0158 163.829 25.3758C163.393 25.7358 163.175 26.2758 163.175 26.9958C163.175 27.64 163.364 28.1137 163.743 28.4168C164.122 28.72 164.719 28.9379 165.534 29.0705L167.637 29.4116C169.323 29.6768 170.545 30.1695 171.303 30.8895C172.08 31.6095 172.469 32.6516 172.469 34.0158C172.469 35.4558 172.004 36.5926 171.076 37.4263C170.166 38.2411 168.783 38.6484 166.926 38.6484H165.733Z" fill="white"/>
<path d="M179.932 38.6484C178.871 38.6484 177.943 38.4874 177.147 38.1653C176.37 37.8242 175.745 37.3505 175.271 36.7442C174.816 36.1379 174.542 35.4179 174.447 34.5842H177.005C177.118 35.1337 177.422 35.5695 177.914 35.8916C178.426 36.2137 179.098 36.3747 179.932 36.3747H181.126C182.13 36.3747 182.878 36.1758 183.371 35.7779C183.864 35.3611 184.11 34.8116 184.11 34.1295C184.11 33.4663 183.883 32.9453 183.428 32.5663C182.992 32.1684 182.338 31.9032 181.467 31.7705L179.364 31.4295C177.829 31.1642 176.683 30.6905 175.925 30.0084C175.186 29.3074 174.816 28.2937 174.816 26.9674C174.816 25.5653 175.262 24.4853 176.152 23.7274C177.043 22.9505 178.378 22.5621 180.16 22.5621H181.24C182.736 22.5621 183.94 22.9126 184.849 23.6137C185.758 24.3147 186.308 25.2621 186.497 26.4558H183.94C183.826 25.9632 183.542 25.5747 183.087 25.2905C182.632 24.9874 182.016 24.8358 181.24 24.8358H180.16C179.193 24.8358 178.483 25.0158 178.028 25.3758C177.592 25.7358 177.374 26.2758 177.374 26.9958C177.374 27.64 177.564 28.1137 177.943 28.4168C178.322 28.72 178.918 28.9379 179.733 29.0705L181.836 29.4116C183.523 29.6768 184.745 30.1695 185.503 30.8895C186.28 31.6095 186.668 32.6516 186.668 34.0158C186.668 35.4558 186.204 36.5926 185.275 37.4263C184.366 38.2411 182.983 38.6484 181.126 38.6484H179.932Z" fill="white"/>
<g clip-path="url(#clip0_10_78)">
<path d="M69.0912 29.1494C66.6121 29.1494 64.5953 27.0722 64.5953 24.5189C64.5953 21.9656 66.6121 19.8883 69.0912 19.8883C71.5702 19.8883 73.587 21.9656 73.587 24.5189C73.587 27.0722 71.5702 29.1494 69.0912 29.1494ZM69.0912 21.0584C67.2775 21.0584 65.802 22.6107 65.802 24.5189C65.802 26.427 67.2775 27.9794 69.0912 27.9794C70.9048 27.9794 72.3803 26.427 72.3803 24.5189C72.3803 22.6107 70.9048 21.0584 69.0912 21.0584Z" fill="#A154E2"/>
<path d="M69.1011 29.039C66.6166 29.039 64.5953 26.8935 64.5953 24.2563C64.5953 21.6192 66.6166 19.4737 69.1011 19.4737C71.5856 19.4737 73.6069 21.6192 73.6069 24.2563C73.6069 26.8935 71.5856 29.039 69.1011 29.039ZM69.1011 20.6821C67.2834 20.6821 65.8047 22.2855 65.8047 24.2563C65.8047 26.2271 67.2834 27.8306 69.1011 27.8306C70.9187 27.8306 72.3975 26.2271 72.3975 24.2563C72.3975 22.2855 70.9187 20.6821 69.1011 20.6821Z" fill="#AB79D6"/>
<path d="M73.4774 38.4211H64.9437C64.1911 38.4202 63.4697 38.1212 62.9375 37.5895C62.4054 37.0578 62.1061 36.3369 62.1053 35.585V27.2209C62.1058 26.7061 62.3108 26.2126 62.6751 25.8486C63.0394 25.4845 63.5333 25.2798 64.0485 25.2792H74.3725C74.8877 25.2798 75.3817 25.4845 75.746 25.8486C76.1103 26.2126 76.3152 26.7061 76.3158 27.2209V35.585C76.3149 36.3369 76.0156 37.0578 75.4835 37.5895C74.9514 38.1212 74.2299 38.4202 73.4774 38.4211Z" fill="white"/>
<path d="M70.8262 30.8124C70.8264 30.517 70.7478 30.2269 70.5986 29.972C70.4493 29.717 70.2346 29.5065 69.9769 29.362C69.719 29.2174 69.4273 29.1442 69.1318 29.1498C68.8362 29.1554 68.5475 29.2396 68.2953 29.3937C68.0432 29.5479 67.8367 29.7664 67.6972 30.0268C67.5577 30.2872 67.4901 30.5801 67.5015 30.8752C67.5129 31.1704 67.6029 31.4572 67.7621 31.706C67.9213 31.9549 68.1441 32.1569 68.4073 32.2912V34.8909H69.9191V32.2912C70.192 32.1522 70.4212 31.9405 70.5813 31.6795C70.7414 31.4186 70.8261 31.1185 70.8262 30.8124Z" fill="#27272C"/>
<path d="M70.8262 30.8124C70.8264 30.517 70.7478 30.2269 70.5986 29.972C70.4493 29.717 70.2346 29.5065 69.9769 29.362C69.719 29.2174 69.4273 29.1442 69.1318 29.1498C68.8362 29.1554 68.5475 29.2396 68.2953 29.3937C68.0432 29.5479 67.8367 29.7664 67.6972 30.0268C67.5577 30.2872 67.4901 30.5801 67.5015 30.8752C67.5129 31.1704 67.6029 31.4572 67.7621 31.706C67.9213 31.9549 68.1441 32.1569 68.4073 32.2912V34.8909H69.9191V32.2912C70.192 32.1522 70.4212 31.9405 70.5813 31.6795C70.7414 31.4186 70.8261 31.1185 70.8262 30.8124Z" fill="#27272C"/>
</g>
<defs>
<clipPath id="clip0_10_78">
<rect width="14.2105" height="18.9474" fill="white" transform="translate(62.1053 19.4737)"/>
</clipPath>
</defs>
</svg>
